<svg width="100" height="100" version="1.1" viewBox="0 0 26.458333 26.458333" xmlns="http://www.w3.org/2000/svg">
 <g transform="translate(0 -270.54)">
  <path d="m21.725 291.34v-0.82661h-4.1256l-2.1108-2.1232-2.1108-2.1232-2.1343 2.1232-2.1343 2.1232h-8.8785v-3.1843h7.3128l1.7092-1.7245 1.7092-1.7245-1.5759-1.5925-1.5759-1.5925h-7.5794v-3.4497h8.9021l2.1108 2.1232 2.1108 2.1233 2.1343-2.1233 2.1343-2.1232h2.051c2.0108 0 2.0845 0.0875 2.051-0.6634-0.01627-0.36451 0.06088-0.66341 0.13528-0.66341 0.3926 0 4.6255 3.0374 4.4502 3.1933-0.40031 0.356-4.2978 2.91-4.4408 2.91-0.07956 0-0.14466-0.29853-0.14466-0.6634 0-0.62389-0.08348-0.66341-1.4015-0.66341-1.361 0-1.447 0.0461-2.9773 1.5925l-1.5759 1.5925 1.7092 1.7245c1.6225 1.637 1.7727 1.7245 2.9605 1.7245 1.1912 0 1.2553-0.0378 1.3345-0.78607l0.08315-0.78608 2.1229 1.4617c1.1676 0.80392 2.1229 1.5685 2.1229 1.6992 0 0.20526-1.7298 1.5134-3.7623 2.8451-0.59923 0.39264-0.61621 0.38099-0.61621-0.42284z" stroke-width=".26536"/>
 </g>
</svg>
